<svg width="556" height="430" viewBox="0 0 556 430" fill="none" xmlns="http://www.w3.org/2000/svg">
<g clip-path="url(#clip0_23_364)">
<path d="M108.377 430C169.889 430 219.754 425.813 219.754 420.648C219.754 415.482 169.889 411.295 108.377 411.295C46.8652 411.295 -3 415.482 -3 420.648C-3 425.813 46.8652 430 108.377 430Z" fill="#E6E6E6"/>
<path d="M82.1345 95.4094C101.517 86.2945 125.659 92.0696 149.236 96.0778C149.456 91.2239 152.115 85.3165 149.329 81.9301C145.945 77.816 146.257 73.4933 148.293 69.1456C153.501 58.028 146.04 46.1982 138.506 36.3619C136.808 34.1498 134.662 32.4118 132.242 31.2889C129.822 30.1661 127.197 29.6901 124.58 29.8996L110.624 31.0017C107.228 31.2698 103.987 32.6783 101.335 35.0385C98.6831 37.3988 96.7462 40.5983 95.7837 44.2089C92.4513 49.2195 90.6678 54.2164 91.7907 59.1871C86.7994 62.9583 85.9609 67.5106 88.2037 72.6424C90.1056 75.8736 90.0854 79.0188 88.1172 82.0771C85.5325 85.9761 83.5528 90.3236 82.2593 94.9413L82.1345 95.4094Z" fill="#2F2E41"/>
<path d="M542.754 371.728H147.705C144.192 371.728 140.823 370.185 138.339 367.439C135.855 364.692 134.459 360.967 134.459 357.083C277.664 338.682 418.178 338.682 556 357.083C556 360.967 554.604 364.692 552.12 367.439C549.636 370.185 546.267 371.728 542.754 371.728Z" fill="#2F2E41"/>
<path d="M556 357.944L134.459 357.083L183.314 266.197L183.548 265.766V65.4638C183.548 63.0325 183.981 60.6251 184.822 58.3788C185.664 56.1326 186.897 54.0917 188.452 52.3725C190.007 50.6534 191.853 49.2897 193.884 48.3594C195.916 47.4291 198.094 46.9504 200.293 46.9506H487.829C490.028 46.9504 492.205 47.4291 494.237 48.3594C496.269 49.2897 498.115 50.6534 499.669 52.3725C501.224 54.0917 502.458 56.1326 503.299 58.3788C504.141 60.6251 504.574 63.0325 504.574 65.4638V267.145L556 357.944Z" fill="#3F3D56"/>
<path d="M199.911 59.8728C198.465 59.8746 197.078 60.5105 196.056 61.641C195.033 62.7715 194.458 64.3043 194.457 65.9031V248.537C194.458 250.135 195.033 251.668 196.056 252.799C197.078 253.929 198.465 254.565 199.911 254.567H490.548C491.994 254.565 493.381 253.929 494.403 252.799C495.426 251.668 496.001 250.135 496.003 248.537V65.9031C496.001 64.3043 495.426 62.7716 494.403 61.6411C493.381 60.5106 491.994 59.8746 490.548 59.8728H199.911Z" fill="white"/>
<path d="M201.129 278.688C200.682 278.689 200.244 278.831 199.868 279.098C199.492 279.364 199.192 279.744 199.005 280.193L183.951 316.375C183.787 316.768 183.716 317.201 183.743 317.634C183.77 318.066 183.895 318.484 184.106 318.849C184.318 319.214 184.609 319.514 184.953 319.722C185.297 319.93 185.682 320.039 186.074 320.039H502.648C503.046 320.039 503.438 319.927 503.786 319.712C504.134 319.498 504.427 319.188 504.636 318.814C504.845 318.439 504.965 318.011 504.983 317.571C505 317.131 504.916 316.693 504.738 316.299L488.375 280.117C488.182 279.687 487.884 279.325 487.514 279.072C487.145 278.82 486.719 278.687 486.285 278.688H201.129Z" fill="#2F2E41"/>
<path d="M344.061 56.8576C345.997 56.8576 347.567 55.122 347.567 52.9809C347.567 50.8399 345.997 49.1043 344.061 49.1043C342.124 49.1043 340.554 50.8399 340.554 52.9809C340.554 55.122 342.124 56.8576 344.061 56.8576Z" fill="white"/>
<path d="M312.944 326.931C312.43 326.932 311.931 327.12 311.523 327.465C311.115 327.811 310.822 328.295 310.687 328.843L306.911 344.35C306.818 344.733 306.805 345.135 306.875 345.524C306.945 345.913 307.094 346.279 307.313 346.594C307.531 346.909 307.812 347.164 308.134 347.34C308.455 347.515 308.809 347.607 309.168 347.607H380.981C381.354 347.607 381.721 347.508 382.052 347.319C382.383 347.131 382.669 346.857 382.885 346.521C383.101 346.186 383.241 345.798 383.294 345.39C383.347 344.982 383.311 344.566 383.189 344.177L378.334 328.67C378.175 328.162 377.877 327.722 377.481 327.411C377.085 327.099 376.611 326.931 376.125 326.931H312.944Z" fill="#2F2E41"/>
<path d="M504.573 262.751V266.197H183.314L183.556 265.766V262.751H504.573Z" fill="#2F2E41"/>
<path d="M495.613 120.607C525.736 120.607 550.156 93.6082 550.156 60.3035C550.156 26.9988 525.736 0 495.613 0C465.49 0 441.07 26.9988 441.07 60.3035C441.07 93.6082 465.49 120.607 495.613 120.607Z" fill="#FC7A1E"/>
<path d="M518.209 86.5786H473.016C472.19 86.5777 471.398 86.2144 470.813 85.5683C470.229 84.9223 469.9 84.0464 469.9 83.1327V52.9809C469.901 52.0673 470.229 51.1914 470.814 50.5454C471.398 49.8994 472.19 49.536 473.016 49.535H518.209C519.036 49.536 519.828 49.8994 520.412 50.5454C520.997 51.1914 521.325 52.0673 521.326 52.9809V83.1327C521.325 84.0463 520.997 84.9223 520.412 85.5683C519.828 86.2144 519.036 86.5777 518.209 86.5786ZM473.016 52.981V83.1327H518.212L518.209 52.9809L473.016 52.981Z" fill="white"/>
<path d="M509.638 52.9809H481.588V39.1973C481.588 29.2137 487.486 21.9677 495.613 21.9677C503.74 21.9677 509.638 29.2137 509.638 39.1973L509.638 52.9809ZM484.704 49.535H506.522V39.1973C506.522 31.0818 502.036 25.4136 495.613 25.4136C489.19 25.4136 484.704 31.0818 484.704 39.1973L484.704 49.535Z" fill="white"/>
<path d="M495.613 70.6413C497.334 70.6413 498.73 69.0985 498.73 67.1953C498.73 65.2922 497.334 63.7494 495.613 63.7494C493.892 63.7494 492.496 65.2922 492.496 67.1953C492.496 69.0985 493.892 70.6413 495.613 70.6413Z" fill="white"/>
<path d="M457.537 192.62H232.922C231.819 192.618 230.762 192.133 229.982 191.271C229.202 190.409 228.764 189.24 228.762 188.021V126.419C228.764 125.2 229.202 124.031 229.982 123.169C230.762 122.307 231.819 121.822 232.922 121.82H457.537C458.64 121.822 459.697 122.307 460.477 123.169C461.257 124.031 461.695 125.2 461.696 126.419V188.021C461.695 189.24 461.257 190.409 460.477 191.271C459.697 192.133 458.64 192.618 457.537 192.62ZM232.922 123.66C232.26 123.661 231.626 123.952 231.158 124.469C230.69 124.986 230.427 125.687 230.426 126.419V188.021C230.427 188.752 230.69 189.454 231.158 189.971C231.626 190.488 232.26 190.779 232.922 190.78H457.537C458.199 190.779 458.833 190.488 459.301 189.971C459.769 189.454 460.032 188.752 460.033 188.021V126.419C460.032 125.687 459.769 124.986 459.301 124.469C458.833 123.951 458.199 123.661 457.537 123.66L232.922 123.66Z" fill="#E6E6E6"/>
<path d="M267.823 173.589C277.18 173.589 284.766 165.202 284.766 154.856C284.766 144.51 277.18 136.123 267.823 136.123C258.465 136.123 250.879 144.51 250.879 154.856C250.879 165.202 258.465 173.589 267.823 173.589Z" fill="#E6E6E6"/>
<path d="M306.955 142.367C306.583 142.367 306.216 142.447 305.873 142.604C305.529 142.76 305.218 142.99 304.955 143.28C304.692 143.57 304.484 143.915 304.342 144.294C304.199 144.673 304.126 145.079 304.126 145.49C304.126 145.9 304.199 146.306 304.342 146.686C304.484 147.065 304.692 147.409 304.955 147.699C305.218 147.989 305.529 148.219 305.873 148.376C306.216 148.532 306.583 148.612 306.955 148.612H440.084C440.833 148.612 441.551 148.283 442.081 147.697C442.61 147.112 442.908 146.318 442.908 145.49C442.908 144.662 442.61 143.867 442.081 143.282C441.551 142.696 440.833 142.367 440.084 142.367H306.955Z" fill="#E6E6E6"/>
<path d="M306.955 161.101C306.206 161.101 305.487 161.43 304.958 162.015C304.428 162.601 304.131 163.395 304.131 164.223C304.131 165.051 304.428 165.845 304.958 166.431C305.487 167.016 306.206 167.345 306.955 167.345H364.24C364.989 167.345 365.708 167.016 366.237 166.431C366.767 165.845 367.064 165.051 367.064 164.223C367.064 163.395 366.767 162.601 366.237 162.015C365.708 161.43 364.989 161.101 364.24 161.101H306.955Z" fill="#E6E6E6"/>
<path d="M182.761 162.364L141.239 186.77L140.714 166.431C154.266 163.93 167.16 159.575 179.082 152.485L183.425 140.623C183.898 139.33 184.667 138.196 185.657 137.331C186.646 136.467 187.822 135.901 189.069 135.691C190.315 135.48 191.59 135.632 192.768 136.131C193.946 136.63 194.986 137.458 195.787 138.536C196.958 140.112 197.543 142.122 197.424 144.158C197.305 146.194 196.491 148.104 195.146 149.501L182.761 162.364Z" fill="#FFB8B8"/>
<path d="M81.3069 303.276C81.004 302.048 80.9397 300.763 81.1182 299.505C81.2967 298.247 81.714 297.046 82.3426 295.979L91.4638 280.503C93.6211 276.842 96.9314 274.198 100.752 273.084C104.573 271.969 108.633 272.463 112.143 274.471C108.309 281.685 108.844 288.014 113.466 293.514C106.29 297.387 99.6573 302.386 93.7738 308.357C92.6997 309.166 91.4662 309.68 90.176 309.856C88.8859 310.032 87.5764 309.864 86.3567 309.367C85.1369 308.87 84.0423 308.058 83.1639 306.999C82.2855 305.939 81.6488 304.663 81.3069 303.276Z" fill="#2F2E41"/>
<path d="M184.652 283.041C183.272 285.584 181.324 287.692 178.994 289.164C176.665 290.635 174.033 291.419 171.35 291.442L110.755 291.949L108.127 275.097L134.932 266.381L112.332 247.204L137.035 215.244L181.903 261.479C184.525 264.181 186.229 267.797 186.73 271.722C187.23 275.646 186.497 279.642 184.652 283.041Z" fill="#2F2E41"/>
<path d="M101.294 398.29H87.1034C74.3619 301.729 61.3923 204.898 99.7176 168.756L144.919 176.891L139.137 219.311L113.909 251.272L101.294 398.29Z" fill="#2F2E41"/>
<path d="M113.769 420.165C112.658 420.5 111.496 420.571 110.358 420.373C109.221 420.176 108.134 419.715 107.169 419.02L91.7603 416.73C88.4493 414.345 86.0576 410.685 85.0493 406.461C84.0411 402.236 84.488 397.748 86.3035 393.868C92.8288 398.106 98.5529 397.514 103.527 392.403C107.042 400.249 112.833 399.77 118.363 406.381C119.096 407.568 119.561 408.932 119.72 410.358C119.879 411.785 119.727 413.233 119.278 414.581C118.828 415.93 118.094 417.14 117.136 418.111C116.177 419.082 115.023 419.786 113.769 420.165Z" fill="#2F2E41"/>
<path d="M134.932 104.254L108.653 97.2803C113.017 87.4027 113.377 76.4119 111.281 64.7387L129.151 64.1576C129.711 78.6735 131.405 92.2351 134.932 104.254Z" fill="#FFB8B8"/>
<path d="M142.155 194.388C123.024 208.801 109.507 194.881 99.1921 173.405C100.625 160.263 98.3046 144.536 94.0062 127.448C92.0946 119.911 92.8083 111.856 96.0064 104.872C99.2045 97.8882 104.655 92.4839 111.281 89.726L133.881 100.186C153.072 117.48 156.849 136.214 149.649 155.972L142.155 194.388Z" fill="#FC7A1E"/>
<path d="M87.1035 118.781L66.0798 130.984L103.397 155.39L108.589 169.551C108.936 170.496 109.105 171.509 109.086 172.529C109.066 173.549 108.86 174.553 108.478 175.482C108.096 176.41 107.547 177.243 106.865 177.929C106.182 178.615 105.38 179.141 104.508 179.473C103.517 179.851 102.46 179.97 101.42 179.821C100.38 179.672 99.3859 179.259 98.5145 178.614C97.6432 177.969 96.9188 177.109 96.398 176.103C95.8772 175.097 95.5741 173.971 95.5125 172.814L94.9874 162.945L47.5579 145.64C45.9598 145.057 44.5028 144.079 43.297 142.782C42.0913 141.484 41.1685 139.9 40.5985 138.149C39.7676 135.597 39.7253 132.813 40.4782 130.232C41.2311 127.651 42.7367 125.419 44.7593 123.885L82.8988 94.9559L87.1035 118.781Z" fill="#FFB8B8"/>
<path d="M108.127 121.105C99.3589 116.857 91.3858 121.472 81.3219 125.173L79.7451 94.3748C89.7381 88.4862 99.2658 86.8985 108.127 91.4694L108.127 121.105Z" fill="#FC7A1E"/>
<path d="M118.616 79.4131C127.882 79.4131 135.394 71.1077 135.394 60.8625C135.394 50.6174 127.882 42.312 118.616 42.312C109.349 42.312 101.837 50.6174 101.837 60.8625C101.837 71.1077 109.349 79.4131 118.616 79.4131Z" fill="#FFB8B8"/>
<path d="M138.689 58.5219C122.076 60.3208 109.418 57.317 101.328 48.7642V41.8764H137.279L138.689 58.5219Z" fill="#2F2E41"/>
<path d="M283.685 225L279.707 210.455H281.497L284.537 222.301H284.679L287.776 210.455H289.764L292.861 222.301H293.003L296.043 210.455H297.832L293.855 225H292.037L288.827 213.409H288.713L285.503 225H283.685ZM303.358 225.227C302.307 225.227 301.4 224.995 300.638 224.531C299.88 224.062 299.295 223.409 298.884 222.571C298.476 221.728 298.273 220.748 298.273 219.631C298.273 218.513 298.476 217.528 298.884 216.676C299.295 215.819 299.868 215.152 300.602 214.673C301.341 214.19 302.203 213.949 303.188 213.949C303.756 213.949 304.317 214.044 304.871 214.233C305.425 214.422 305.929 214.73 306.384 215.156C306.838 215.578 307.2 216.136 307.47 216.832C307.74 217.528 307.875 218.385 307.875 219.403V220.114H299.466V218.665H306.17C306.17 218.049 306.047 217.5 305.801 217.017C305.56 216.534 305.214 216.153 304.764 215.874C304.319 215.594 303.794 215.455 303.188 215.455C302.52 215.455 301.942 215.62 301.455 215.952C300.972 216.278 300.6 216.705 300.339 217.23C300.079 217.756 299.949 218.319 299.949 218.92V219.886C299.949 220.71 300.091 221.409 300.375 221.982C300.664 222.55 301.064 222.983 301.575 223.281C302.087 223.575 302.681 223.722 303.358 223.722C303.798 223.722 304.196 223.66 304.551 223.537C304.911 223.409 305.221 223.22 305.482 222.969C305.742 222.713 305.943 222.396 306.085 222.017L307.705 222.472C307.534 223.021 307.248 223.504 306.845 223.92C306.443 224.332 305.946 224.654 305.354 224.886C304.762 225.114 304.097 225.227 303.358 225.227ZM312.101 210.455V225H310.425V210.455H312.101ZM319.603 225.227C318.58 225.227 317.699 224.986 316.961 224.503C316.222 224.02 315.654 223.355 315.256 222.507C314.858 221.66 314.659 220.691 314.659 219.602C314.659 218.494 314.863 217.517 315.27 216.669C315.682 215.817 316.255 215.152 316.989 214.673C317.728 214.19 318.589 213.949 319.574 213.949C320.341 213.949 321.033 214.091 321.648 214.375C322.264 214.659 322.768 215.057 323.161 215.568C323.554 216.08 323.798 216.676 323.892 217.358H322.216C322.088 216.861 321.804 216.42 321.364 216.037C320.928 215.649 320.341 215.455 319.603 215.455C318.949 215.455 318.376 215.625 317.884 215.966C317.396 216.302 317.015 216.778 316.74 217.393C316.471 218.004 316.336 218.722 316.336 219.545C316.336 220.388 316.468 221.122 316.733 221.747C317.003 222.372 317.382 222.857 317.87 223.203C318.362 223.549 318.94 223.722 319.603 223.722C320.038 223.722 320.434 223.646 320.789 223.494C321.144 223.343 321.444 223.125 321.691 222.841C321.937 222.557 322.112 222.216 322.216 221.818H323.892C323.798 222.462 323.563 223.042 323.189 223.558C322.82 224.07 322.33 224.477 321.719 224.78C321.113 225.078 320.408 225.227 319.603 225.227ZM330.775 225.227C329.79 225.227 328.926 224.993 328.182 224.524C327.444 224.055 326.866 223.4 326.449 222.557C326.037 221.714 325.831 220.729 325.831 219.602C325.831 218.466 326.037 217.474 326.449 216.626C326.866 215.779 327.444 215.121 328.182 214.652C328.926 214.183 329.79 213.949 330.775 213.949C331.759 213.949 332.621 214.183 333.36 214.652C334.103 215.121 334.681 215.779 335.093 216.626C335.509 217.474 335.718 218.466 335.718 219.602C335.718 220.729 335.509 221.714 335.093 222.557C334.681 223.4 334.103 224.055 333.36 224.524C332.621 224.993 331.759 225.227 330.775 225.227ZM330.775 223.722C331.523 223.722 332.138 223.53 332.621 223.146C333.104 222.763 333.462 222.259 333.694 221.634C333.926 221.009 334.042 220.331 334.042 219.602C334.042 218.873 333.926 218.194 333.694 217.564C333.462 216.934 333.104 216.425 332.621 216.037C332.138 215.649 331.523 215.455 330.775 215.455C330.026 215.455 329.411 215.649 328.928 216.037C328.445 216.425 328.087 216.934 327.855 217.564C327.623 218.194 327.507 218.873 327.507 219.602C327.507 220.331 327.623 221.009 327.855 221.634C328.087 222.259 328.445 222.763 328.928 223.146C329.411 223.53 330.026 223.722 330.775 223.722ZM338.276 225V214.091H339.896V215.795H340.038C340.265 215.213 340.632 214.761 341.138 214.439C341.645 214.112 342.254 213.949 342.964 213.949C343.683 213.949 344.282 214.112 344.761 214.439C345.244 214.761 345.62 215.213 345.89 215.795H346.004C346.283 215.232 346.702 214.785 347.261 214.453C347.819 214.117 348.489 213.949 349.271 213.949C350.246 213.949 351.044 214.254 351.664 214.865C352.284 215.471 352.594 216.416 352.594 217.699V225H350.918V217.699C350.918 216.894 350.698 216.319 350.258 215.973C349.817 215.627 349.299 215.455 348.702 215.455C347.935 215.455 347.341 215.687 346.92 216.151C346.498 216.61 346.288 217.192 346.288 217.898V225H344.583V217.528C344.583 216.908 344.382 216.409 343.979 216.03C343.577 215.646 343.058 215.455 342.424 215.455C341.988 215.455 341.581 215.571 341.202 215.803C340.828 216.035 340.525 216.357 340.293 216.768C340.066 217.176 339.952 217.647 339.952 218.182V225H338.276ZM360.233 225.227C359.182 225.227 358.275 224.995 357.513 224.531C356.755 224.062 356.17 223.409 355.759 222.571C355.351 221.728 355.148 220.748 355.148 219.631C355.148 218.513 355.351 217.528 355.759 216.676C356.17 215.819 356.743 215.152 357.477 214.673C358.216 214.19 359.078 213.949 360.062 213.949C360.631 213.949 361.192 214.044 361.746 214.233C362.3 214.422 362.804 214.73 363.259 215.156C363.713 215.578 364.075 216.136 364.345 216.832C364.615 217.528 364.75 218.385 364.75 219.403V220.114H356.341V218.665H363.045C363.045 218.049 362.922 217.5 362.676 217.017C362.435 216.534 362.089 216.153 361.639 215.874C361.194 215.594 360.669 215.455 360.062 215.455C359.395 215.455 358.817 215.62 358.33 215.952C357.847 216.278 357.475 216.705 357.214 217.23C356.954 217.756 356.824 218.319 356.824 218.92V219.886C356.824 220.71 356.966 221.409 357.25 221.982C357.539 222.55 357.939 222.983 358.45 223.281C358.962 223.575 359.556 223.722 360.233 223.722C360.673 223.722 361.071 223.66 361.426 223.537C361.786 223.409 362.096 223.22 362.357 222.969C362.617 222.713 362.818 222.396 362.96 222.017L364.58 222.472C364.409 223.021 364.123 223.504 363.72 223.92C363.318 224.332 362.821 224.654 362.229 224.886C361.637 225.114 360.972 225.227 360.233 225.227ZM373.152 225V210.455H378.237C379.25 210.455 380.086 210.63 380.744 210.98C381.402 211.326 381.893 211.792 382.214 212.379C382.536 212.962 382.697 213.608 382.697 214.318C382.697 214.943 382.586 215.459 382.364 215.866C382.146 216.274 381.857 216.596 381.497 216.832C381.142 217.069 380.756 217.244 380.339 217.358V217.5C380.785 217.528 381.232 217.685 381.682 217.969C382.132 218.253 382.508 218.66 382.811 219.19C383.114 219.721 383.266 220.369 383.266 221.136C383.266 221.866 383.1 222.521 382.768 223.104C382.437 223.686 381.914 224.148 381.199 224.489C380.484 224.83 379.554 225 378.408 225H373.152ZM374.913 223.438H378.408C379.558 223.438 380.375 223.215 380.858 222.77C381.346 222.32 381.589 221.776 381.589 221.136C381.589 220.644 381.464 220.189 381.213 219.773C380.962 219.351 380.605 219.015 380.141 218.764C379.677 218.509 379.127 218.381 378.493 218.381H374.913V223.438ZM374.913 216.847H378.18C378.711 216.847 379.189 216.742 379.615 216.534C380.046 216.326 380.387 216.032 380.638 215.653C380.893 215.275 381.021 214.83 381.021 214.318C381.021 213.679 380.799 213.137 380.354 212.692C379.909 212.242 379.203 212.017 378.237 212.017H374.913V216.847ZM389.143 225.256C388.451 225.256 387.824 225.125 387.261 224.865C386.697 224.6 386.25 224.219 385.918 223.722C385.587 223.22 385.421 222.614 385.421 221.903C385.421 221.278 385.544 220.772 385.79 220.384C386.037 219.991 386.366 219.683 386.778 219.46C387.19 219.238 387.644 219.072 388.141 218.963C388.643 218.849 389.147 218.759 389.654 218.693C390.317 218.608 390.854 218.544 391.266 218.501C391.683 218.454 391.986 218.376 392.175 218.267C392.37 218.158 392.467 217.969 392.467 217.699V217.642C392.467 216.941 392.275 216.397 391.891 216.009C391.513 215.62 390.937 215.426 390.165 215.426C389.365 215.426 388.738 215.601 388.283 215.952C387.829 216.302 387.509 216.676 387.325 217.074L385.734 216.506C386.018 215.843 386.397 215.327 386.87 214.957C387.348 214.583 387.869 214.323 388.433 214.176C389.001 214.025 389.559 213.949 390.109 213.949C390.459 213.949 390.862 213.991 391.316 214.077C391.775 214.157 392.218 214.325 392.644 214.581C393.075 214.837 393.433 215.223 393.717 215.739C394.001 216.255 394.143 216.946 394.143 217.812V225H392.467V223.523H392.381C392.268 223.759 392.078 224.013 391.813 224.283C391.548 224.553 391.195 224.782 390.755 224.972C390.315 225.161 389.777 225.256 389.143 225.256ZM389.398 223.75C390.061 223.75 390.62 223.62 391.075 223.359C391.534 223.099 391.879 222.763 392.112 222.351C392.348 221.939 392.467 221.506 392.467 221.051V219.517C392.396 219.602 392.239 219.68 391.998 219.751C391.761 219.818 391.487 219.877 391.174 219.929C390.866 219.976 390.566 220.019 390.272 220.057C389.983 220.09 389.749 220.118 389.569 220.142C389.133 220.199 388.726 220.291 388.347 220.419C387.973 220.542 387.67 220.729 387.438 220.98C387.211 221.226 387.097 221.562 387.097 221.989C387.097 222.571 387.313 223.011 387.744 223.31C388.179 223.603 388.731 223.75 389.398 223.75ZM401.634 225.227C400.611 225.227 399.73 224.986 398.992 224.503C398.253 224.02 397.685 223.355 397.287 222.507C396.89 221.66 396.691 220.691 396.691 219.602C396.691 218.494 396.894 217.517 397.301 216.669C397.713 215.817 398.286 215.152 399.02 214.673C399.759 214.19 400.621 213.949 401.605 213.949C402.373 213.949 403.064 214.091 403.679 214.375C404.295 214.659 404.799 215.057 405.192 215.568C405.585 216.08 405.829 216.676 405.924 217.358H404.248C404.12 216.861 403.836 216.42 403.395 216.037C402.96 215.649 402.373 215.455 401.634 215.455C400.98 215.455 400.408 215.625 399.915 215.966C399.427 216.302 399.046 216.778 398.772 217.393C398.502 218.004 398.367 218.722 398.367 219.545C398.367 220.388 398.499 221.122 398.765 221.747C399.034 222.372 399.413 222.857 399.901 223.203C400.393 223.549 400.971 223.722 401.634 223.722C402.069 223.722 402.465 223.646 402.82 223.494C403.175 223.343 403.476 223.125 403.722 222.841C403.968 222.557 404.143 222.216 404.248 221.818H405.924C405.829 222.462 405.595 223.042 405.221 223.558C404.851 224.07 404.361 224.477 403.75 224.78C403.144 225.078 402.439 225.227 401.634 225.227ZM409.936 221.023L409.908 218.949H410.249L415.022 214.091H417.096L412.01 219.233H411.868L409.936 221.023ZM408.374 225V210.455H410.05V225H408.374ZM415.306 225L411.044 219.602L412.238 218.438L417.436 225H415.306Z" fill="black"/>
</g>
<defs>
<clipPath id="clip0_23_364">
<rect width="559" height="430" fill="white" transform="translate(-3)"/>
</clipPath>
</defs>
</svg>
